<svg id="Layer_1" data-name="Layer 1" xmlns="http://www.w3.org/2000/svg" viewBox="0 0 45 45"><defs><style>.cls-1{fill:#5ec4b8;}</style></defs><title>facebookIcon</title><g id="Facebook"><g id="Facebook-2"><g id="Circle_Grey" data-name="Circle Grey"><g id="Facebook-3"><circle id="back-2" class="cls-1" cx="22.5" cy="22.5" r="22.5"/><path id="Facebook-4" d="M40.83,18.08H18.89a1.37,1.37,0,0,0-1.37,1.37V41.39a1.37,1.37,0,0,0,1.37,1.37H30.71V33.2H27.5V29.47h3.21V26.72c0-3.18,1.94-4.94,4.8-4.94a25.42,25.42,0,0,1,2.89.14v3.31h-2c-1.55,0-1.84.75-1.84,1.8V29.4h3.7l-.49,3.8H34.55v9.56h6.28a1.37,1.37,0,0,0,1.37-1.37h0V19.45A1.37,1.37,0,0,0,40.83,18.08Z" transform="translate(-7.01 -7.85)"/></g></g></g></g></svg>