<svg id="Layer_1" data-name="Layer 1" xmlns="http://www.w3.org/2000/svg" viewBox="0 0 367.47 56.06"><defs><style>.cls-1{fill:#fff;}</style></defs><title>Logo_jeanna2</title><path class="cls-1" d="M30.36,11.94V48.15c0,3.75-.85,6.32-2.55,7.74S23,58,18.39,58H14.67l-.95-9.93H16.2a2.51,2.51,0,0,0,1.57-.32,2.14,2.14,0,0,0,.33-1.43V11.94Z" transform="translate(-13.72 -11.94)"/><path class="cls-1" d="M50.66,21.43q7.52,0,10.77,3.61t3.24,10.33c0,.59-.17,3.21-.51,7.89H47.52q0,5.48,5,5.47A50.77,50.77,0,0,0,62,47.05l1,9.05A41.17,41.17,0,0,1,50.73,58q-7.51,0-11.53-4.92t-4-13.4Q35.18,21.43,50.66,21.43Zm-.29,10.44a2.44,2.44,0,0,0-2.49,1.28,9.85,9.85,0,0,0-.58,3.9h6.35V35.3Q53.65,31.87,50.37,31.87Z" transform="translate(-13.72 -11.94)"/><path class="cls-1" d="M94.38,31.43,94,46.54a2.1,2.1,0,0,0,.69,1.86,4.37,4.37,0,0,0,2.38.48L96,57.71c-2.82.19-4.38.29-4.67.29q-5.4,0-6.86-3.72h-.37Q81.39,58,75.77,58a8.11,8.11,0,0,1-6.61-2.77,11.56,11.56,0,0,1-2.3-7.59q0-6.06,3.76-8.4t11.87-3.06V34.42a1.81,1.81,0,0,0-2-2q-3.5,0-11,2.12L67.67,23.84a64.4,64.4,0,0,1,15.55-2.41c4.13,0,7,.8,8.68,2.41S94.38,28,94.38,31.43Zm-14.08,18q2.7,0,2.7-2.85V43a9.49,9.49,0,0,0-3.84,1.13A2.9,2.9,0,0,0,78,46.76C78,48.56,78.79,49.46,80.3,49.46Z" transform="translate(-13.72 -11.94)"/><path class="cls-1" d="M112.05,24.86a13.28,13.28,0,0,1,8.83-3.43q4.82,0,6.75,2.23t1.94,6.68V57.27H117.16V34.5c0-1.22-.54-1.83-1.61-1.83a5.65,5.65,0,0,0-3.43,1V57.27H99.86v-35H111l.73,2.55Z" transform="translate(-13.72 -11.94)"/><path class="cls-1" d="M146.14,24.86A13.28,13.28,0,0,1,155,21.43q4.83,0,6.76,2.23c1.28,1.48,1.93,3.71,1.93,6.68V57.27H151.25V34.5c0-1.22-.54-1.83-1.61-1.83a5.65,5.65,0,0,0-3.43,1V57.27H134v-35h11.17l.73,2.55Z" transform="translate(-13.72 -11.94)"/><path class="cls-1" d="M194.39,31.43,194,46.54a2.1,2.1,0,0,0,.69,1.86,4.33,4.33,0,0,0,2.37.48L196,57.71c-2.82.19-4.38.29-4.67.29q-5.4,0-6.86-3.72h-.37Q181.4,58,175.78,58a8.09,8.09,0,0,1-6.61-2.77,11.56,11.56,0,0,1-2.3-7.59q0-6.06,3.76-8.4t11.86-3.06V34.42a1.8,1.8,0,0,0-2-2q-3.51,0-10.95,2.12l-1.82-10.66a64.33,64.33,0,0,1,15.54-2.41q6.21,0,8.69,2.41C193.56,25.44,194.39,28,194.39,31.43Zm-14.09,18q2.7,0,2.7-2.85V43a9.43,9.43,0,0,0-3.83,1.13A2.9,2.9,0,0,0,178,46.76C178,48.56,178.79,49.46,180.3,49.46Z" transform="translate(-13.72 -11.94)"/><path class="cls-1" d="M249.94,33.62q0,23.66-18.68,23.65h-15V11.94h15.33q10,0,14.2,5.58T249.94,33.62ZM236,44c.75-1.82,1.13-4.89,1.13-9.19s-.4-7.37-1.2-9.17-2.52-2.7-5.15-2.7h-2.19v23.8H231C233.62,46.76,235.28,45.85,236,44Z" transform="translate(-13.72 -11.94)"/><path class="cls-1" d="M293.23,22.31l-4.45,35H275.42l-2.85-14.74h-.51l-2.77,14.74H256.22l-4.45-35H263L264.54,40h.59l2.48-17.66h10.15L280.17,40h.65l1.61-17.66Z" transform="translate(-13.72 -11.94)"/><path class="cls-1" d="M326.08,22.31l-9.05,36c-.93,3.61-2.29,6.12-4.09,7.56S308.2,68,304.11,68h-7.3l-1.1-9.41h4.09c1.66,0,2.48-.66,2.48-2a11.84,11.84,0,0,0-.29-1.9L293.6,22.31h13l3.29,21.82h.65l3.58-21.82Z" transform="translate(-13.72 -11.94)"/><path class="cls-1" d="M343.16,21.43q7.51,0,10.77,3.61t3.25,10.33c0,.59-.17,3.21-.51,7.89H340q0,5.48,5,5.47a50.69,50.69,0,0,0,9.42-1.68l1,9.05A41.16,41.16,0,0,1,343.24,58q-7.53,0-11.54-4.92t-4-13.4Q327.69,21.43,343.16,21.43Zm-.29,10.44a2.42,2.42,0,0,0-2.48,1.28,9.85,9.85,0,0,0-.58,3.9h6.35V35.3Q346.16,31.87,342.87,31.87Z" transform="translate(-13.72 -11.94)"/><path class="cls-1" d="M372.65,37.64V57.27H360.54v-35h10.65l.73,2.11h.3A7.85,7.85,0,0,1,375.61,22a20,20,0,0,1,5.59-.55l-.52,11.68h-3.35c-1.9,0-3.16.29-3.76.88S372.65,35.79,372.65,37.64Z" transform="translate(-13.72 -11.94)"/></svg>